<svg width="500" height="100" viewBox="0 0 500 100" fill="none" xmlns="http://www.w3.org/2000/svg">
<g clip-path="url(#clip0_10_267)">
<path fill-rule="evenodd" clip-rule="evenodd" d="M5.59392 37.0359L7.22336 36.9154L13.0633 46.5613L6.38964 47.0899L5.59315 37.0352L5.59392 37.0359ZM13.0575 36.4661L20.7125 35.865L26.5525 45.5109L18.8974 46.112L13.0575 36.4661ZM26.5638 35.4144L34.201 34.8146L40.0409 44.4605L32.4037 45.0604L26.5631 35.4145L26.5638 35.4144ZM40.0523 34.3648L47.6895 33.765L53.5473 43.4096L45.8922 44.0107L40.0516 34.3648L40.0523 34.3648ZM53.5415 33.3144L61.1965 32.7132L67.0364 42.3592L59.3814 42.9603L53.5415 33.3144ZM67.0306 32.2639L75.2117 31.6239L76.024 41.6595L72.8713 41.9105L67.0314 32.2646L67.0306 32.2639Z" fill="white"/>
<path fill-rule="evenodd" clip-rule="evenodd" d="M5.59416 37.0358L7.12643 36.5522L7.79747 25.614L1.51704 27.6464L5.5941 37.0351L5.59416 37.0358ZM12.6324 34.7709L19.8583 32.4218L20.5306 21.5014L13.3035 23.8327L12.6324 34.7709ZM25.3663 30.6582L32.575 28.3104L33.2474 17.39L26.0374 19.72L25.3663 30.6582ZM38.0817 26.529L45.2917 24.1989L45.9641 13.2785L38.7541 15.6086L38.0817 26.529ZM50.7977 22.4176L58.0256 20.0863L58.6966 9.14801L51.488 11.4959L50.7977 22.4176ZM63.5316 18.3042L71.2407 15.8138L67.1643 6.42504L64.2046 7.38374L63.5323 18.3041L63.5316 18.3042Z" fill="white"/>
<path d="M40.1246 57.0174L38.2394 60.592L40.7627 59.4369L38.461 63.5887L41.0555 63.3968L40.0135 66.9452L42.4183 65.8695L43.7254 74.2647L44.6019 74.1999L46.3994 80.3928L39.528 91.1191L35.6934 85.729L37.9592 81.105L34.7567 73.0604L27.8885 80.9692L27.619 77.3239L25.7327 74.9086L40.2672 52.7619L40.1246 57.0174Z" fill="url(#paint0_linear_10_267)"/>
<path d="M18.3961 77.6866L19.3366 79.2034L18.0228 81.6967L20.4942 81.7607L18.2441 85.6442L20.7675 85.4577L18.2743 91.7739L14.6235 86.2478L9.44703 85.3438L19.7197 73.4309L18.3961 77.6866Z" fill="url(#paint1_linear_10_267)"/>
<path d="M60.6182 66.1083L61.5578 67.6252L60.2449 70.1184L62.715 70.1649L60.4663 74.066L62.9897 73.8794L61.1102 82.7756L58.6138 73.0758L54.0588 69.624L61.9418 61.8526L60.6182 66.1083Z" fill="url(#paint2_linear_10_267)"/>
<path fill-rule="evenodd" clip-rule="evenodd" d="M78.6445 76.633L61.6957 60.4441L56.0655 65.071L40.1348 48.3486L24.5014 72.1089L19.8168 69.5127L8.7156 83.318L6.19189 49.1836L76.1971 44.0078L78.6445 76.633ZM23.8585 66.9763L23.2216 67.1821L23.8819 67.2919L24.1385 68.1532L24.25 67.2647L24.9035 67.0577L24.2267 66.9491L23.9856 66.0856L23.8585 66.9763ZM73.7293 63.2892L73.0748 63.4962L73.7526 63.6047L73.9926 64.4673L74.1197 63.5776L74.7567 63.3718L74.0964 63.262L73.8398 62.3997L73.7293 63.2892ZM15.6569 62.3331L14.1086 62.8343L15.7139 63.1034L16.3264 65.1899L16.6079 63.0373L18.1747 62.5337L16.551 62.267L15.9559 60.1782L15.6569 62.3331ZM54.9425 59.6567L54.3065 59.8623L54.9658 59.9722L55.2235 60.8345L55.334 59.945L55.9875 59.738L55.3106 59.6295L55.0706 58.7669L54.9425 59.6567ZM68.8567 58.6279L68.2022 58.835L68.88 58.9435L69.1191 59.8071L69.2472 58.9163L69.9017 58.7093L69.2238 58.6008L68.9662 57.7385L68.8567 58.6279ZM21.6063 53.6648L19.42 54.3718L21.6865 54.7507L22.5356 57.6657L22.9302 54.6587L25.1505 53.9481L22.8499 53.5728L22.0161 50.639L21.6063 53.6648ZM67.2973 49.9341L65.7481 50.4364L67.3557 50.723L67.9659 52.792L68.2487 50.6569L69.8132 50.1359L68.1904 49.8681L67.5967 47.7978L67.2973 49.9341ZM57.3395 50.3707L56.1017 50.7795L57.3849 50.9842L57.8599 52.6402L58.0861 50.9324L59.3438 50.5398L58.0408 50.3188L57.567 48.6794L57.3395 50.3707ZM9.98655 53.0795L9.33206 53.2865L10.0098 53.3941L10.2499 54.2576L10.3779 53.3668L11.0325 53.1608L10.3547 53.0523L10.097 52.19L9.98655 53.0795ZM48.576 49.5566L47.9227 49.7802L48.6005 49.8887L48.8406 50.7523L48.9687 49.8615L49.6231 49.6545L48.9441 49.5294L48.6865 48.6671L48.576 49.5566ZM72.5451 47.2733L71.8906 47.4803L72.5685 47.5889L72.8085 48.4514L72.9366 47.5616L73.5726 47.356L72.9133 47.2461L72.6556 46.3838L72.5451 47.2733Z" fill="url(#paint3_linear_10_267)"/>
<path d="M68.0084 68.6102L66.5406 73.2996L65.5361 69.2503L64.4152 69.3332L64.112 65.2331L68.0084 68.6102Z" fill="url(#paint4_linear_10_267)"/>
<path d="M47.3643 57.9618L45.9106 59.7428L48.951 62.0199L47.7095 66.4458L46.783 62.9734L42.1951 60.4934L44.7144 57.6289L43.9002 54.0072L47.3643 57.9618Z" fill="url(#paint5_linear_10_267)"/>
</g>
<path d="M119.462 79.1408C103.164 79.1408 92 66.999 92 49.5605C92 32.122 103.001 19.9802 119.299 19.9802C132.663 19.9802 143.175 28.292 145.131 43.0414L130.626 44.3452C130.137 35.5445 125.573 30.8181 119.299 30.8181C111.394 30.8181 106.098 38.4781 106.098 49.5605C106.098 60.6429 111.476 68.3029 119.462 68.3029C125.736 68.3029 130.381 63.0876 130.707 55.7536L145.131 56.324C144.397 70.0141 133.885 79.1408 119.462 79.1408Z" fill="white"/>
<path d="M149.393 78V21.121H163.328V78H149.393Z" fill="white"/>
<path d="M170.131 78V21.121H185.532L205.986 57.8723C205.986 57.8723 205.741 51.3532 205.741 40.9227V21.121H219.676V78H204.275L183.821 41.2487C183.821 41.2487 184.147 47.6863 184.147 58.1168V78H170.131Z" fill="white"/>
<path d="M226.444 78V21.121H265.803V31.959H240.379V43.4489H262.054V53.8794H240.379V67.162H266.129V78H226.444Z" fill="white"/>
<path d="M271.135 78V21.121H287.921L294.033 37.0928C298.026 46.9529 299.656 53.6349 299.656 53.6349C299.656 53.6349 301.611 46.8714 305.278 37.1742L311.39 21.121H328.177V78H314.568V58.6872C314.324 48.0122 314.894 41.1672 314.894 41.1672C314.894 41.1672 312.694 47.8492 309.19 57.6279L305.36 68.1399H293.951L290.122 57.7094C286.292 47.7677 284.417 41.1672 284.417 41.1672C284.417 41.1672 284.662 48.1752 284.662 58.6057V78H271.135Z" fill="white"/>
<path d="M331.017 78L348.537 21.121H368.99L386.266 78H371.761L368.012 64.9618H349.352L345.522 78H331.017ZM352.367 54.6128H365.079L363.205 48.1752C359.945 37.9891 358.804 31.796 358.804 31.796C358.804 31.796 357.256 38.0706 354.322 48.0937L352.367 54.6128Z" fill="white"/>
<path d="M388.598 78V68.1399H399.354V78H388.598Z" fill="#419EFF"/>
<path d="M388.598 78V68.1399H399.354V78H388.598Z" fill="url(#paint6_linear_10_267)"/>
<path d="M405.533 78V21.121H426.394C439.839 21.121 447.173 25.8473 447.173 36.3594C447.173 42.2265 443.914 46.4639 440.165 47.8492C445.055 48.7456 450.27 52.3311 450.27 61.2134C450.27 71.5624 444.403 78 430.305 78H405.533ZM429.164 67.5695C433.728 67.5695 436.091 64.8803 436.091 60.5614C436.091 56.2426 433.402 53.6349 428.92 53.6349H419.467V67.5695H429.164ZM426.475 44.1008C430.55 44.1008 433.157 41.5746 433.157 37.4187C433.157 33.7517 430.957 31.5515 426.883 31.5515H419.467V44.1008H426.475Z" fill="#419EFF"/>
<path d="M405.533 78V21.121H426.394C439.839 21.121 447.173 25.8473 447.173 36.3594C447.173 42.2265 443.914 46.4639 440.165 47.8492C445.055 48.7456 450.27 52.3311 450.27 61.2134C450.27 71.5624 444.403 78 430.305 78H405.533ZM429.164 67.5695C433.728 67.5695 436.091 64.8803 436.091 60.5614C436.091 56.2426 433.402 53.6349 428.92 53.6349H419.467V67.5695H429.164ZM426.475 44.1008C430.55 44.1008 433.157 41.5746 433.157 37.4187C433.157 33.7517 430.957 31.5515 426.883 31.5515H419.467V44.1008H426.475Z" fill="url(#paint7_linear_10_267)"/>
<path d="M451.841 78V69.8511L478.895 31.959H452.33V21.121H497.393V29.3513L470.176 67.162H497.719V78H451.841Z" fill="#419EFF"/>
<path d="M451.841 78V69.8511L478.895 31.959H452.33V21.121H497.393V29.3513L470.176 67.162H497.719V78H451.841Z" fill="url(#paint8_linear_10_267)"/>
<defs>
<linearGradient id="paint0_linear_10_267" x1="9" y1="68" x2="79" y2="68" gradientUnits="userSpaceOnUse">
<stop stop-color="#60A5FA"/>
<stop offset="1" stop-color="#2563EB"/>
</linearGradient>
<linearGradient id="paint1_linear_10_267" x1="9" y1="68" x2="79" y2="68" gradientUnits="userSpaceOnUse">
<stop stop-color="#60A5FA"/>
<stop offset="1" stop-color="#2563EB"/>
</linearGradient>
<linearGradient id="paint2_linear_10_267" x1="9" y1="68" x2="79" y2="68" gradientUnits="userSpaceOnUse">
<stop stop-color="#60A5FA"/>
<stop offset="1" stop-color="#2563EB"/>
</linearGradient>
<linearGradient id="paint3_linear_10_267" x1="9" y1="68" x2="79" y2="68" gradientUnits="userSpaceOnUse">
<stop stop-color="#60A5FA"/>
<stop offset="1" stop-color="#2563EB"/>
</linearGradient>
<linearGradient id="paint4_linear_10_267" x1="9" y1="68" x2="79" y2="68" gradientUnits="userSpaceOnUse">
<stop stop-color="#60A5FA"/>
<stop offset="1" stop-color="#2563EB"/>
</linearGradient>
<linearGradient id="paint5_linear_10_267" x1="9" y1="68" x2="79" y2="68" gradientUnits="userSpaceOnUse">
<stop stop-color="#60A5FA"/>
<stop offset="1" stop-color="#2563EB"/>
</linearGradient>
<linearGradient id="paint6_linear_10_267" x1="392.492" y1="49.0873" x2="497.719" y2="49.5558" gradientUnits="userSpaceOnUse">
<stop stop-color="#419EFF"/>
<stop offset="1" stop-color="#2563EB"/>
</linearGradient>
<linearGradient id="paint7_linear_10_267" x1="392.492" y1="49.0873" x2="497.719" y2="49.5558" gradientUnits="userSpaceOnUse">
<stop stop-color="#419EFF"/>
<stop offset="1" stop-color="#2563EB"/>
</linearGradient>
<linearGradient id="paint8_linear_10_267" x1="392.492" y1="49.0873" x2="497.719" y2="49.5558" gradientUnits="userSpaceOnUse">
<stop stop-color="#419EFF"/>
<stop offset="1" stop-color="#2563EB"/>
</linearGradient>
<clipPath id="clip0_10_267">
<rect width="73.3055" height="82.4254" fill="white" transform="translate(0.313477 11.3676) rotate(-4.22843)"/>
</clipPath>
</defs>
</svg>