<svg id="Layer_1" enable-background="new 0 0 511.33 511.33" height="512" viewBox="0 0 511.33 511.33" width="512" xmlns="http://www.w3.org/2000/svg"><g><path d="m369.076 208.967-64.338 53.804-4.336-56.475-14.955 1.148 6.565 85.525 77.361-64.696 7.939 6.235-80.377 101.522v160.3h-79.44v-201.917l-65.672-81.052 3.329-2.933 65.852 52.113 10.619-106.23h49.897l2.778 36.134 14.955-1.15-3.843-49.984h-77.363l-9.241 92.449-54.168-42.867-23.532 20.726 71.389 88.109v211.602h109.44v-170.081l86.484-109.237z" id="id_101" style="fill: rgb(255, 255, 255);"></path><path d="m394.9 113.447c-13.421-65.334-71.19-113.447-139.235-113.447-68.041 0-125.815 48.11-139.234 113.448-48.033 19.044-80.006 65.849-80.006 117.822 0 44.289 23.27 85.435 61.001 108.351 4.237 41.117 38.798 74.129 82.569 74.129v-15c-37.279 0-66.028-28.983-67.911-64.022l-.221-4.106-3.581-2.022c-35.071-19.801-56.858-57.095-56.858-97.328 0-47.103 29.784-89.39 74.114-105.228l4.119-1.472.747-4.31c5.052-29.134 20.318-55.788 42.987-75.052 47.335-40.224 117.116-40.307 164.547 0 22.669 19.264 37.935 45.918 42.987 75.052l.747 4.31 4.119 1.472c44.329 15.838 74.113 58.125 74.113 105.228 0 40.232-21.786 77.527-56.857 97.328l-3.581 2.022-.221 4.106c-1.872 34.847-30.091 62.7-65.085 63.978l.547 14.99c41.177-1.504 74.968-33.209 79.195-74.073 37.731-22.917 61.002-64.063 61.002-108.352.001-51.974-31.971-98.779-80.004-117.824z" id="id_102" style="fill: rgb(255, 255, 255);"></path><path d="m293.425 85.045h15v15h-15z" id="id_103" style="fill: rgb(255, 255, 255);"></path><path d="m248.424 85.045h15v15h-15z" id="id_104" style="fill: rgb(255, 255, 255);"></path><path d="m203.424 85.045h15v15h-15z" id="id_105" style="fill: rgb(255, 255, 255);"></path><path d="m248.165 462.282h15v15h-15z" id="id_106" style="fill: rgb(255, 255, 255);"></path><path d="m248.165 332.282h15v15h-15z" id="id_107" style="fill: rgb(255, 255, 255);"></path><path d="m248.165 205.282h15v15h-15z" id="id_108" style="fill: rgb(255, 255, 255);"></path></g></svg>